<?xml version="1.0" encoding="UTF-8" standalone="no"?>
<!-- Created with Inkscape (http://www.inkscape.org/) -->

<svg
   width="93.058929mm"
   height="94.149811mm"
   viewBox="0 0 93.058929 94.149811"
   version="1.1"
   id="svg5"
   xmlns="http://www.w3.org/2000/svg"
   xmlns:svg="http://www.w3.org/2000/svg">
  <defs
     id="defs2" />
  <g
     id="layer1"
     transform="translate(-51.366367,-100.31894)">
    <path
       id="path242"
       style="fill:#000000;stroke:none;stroke-width:12.2474px;stroke-linecap:butt;stroke-linejoin:miter;stroke-opacity:1"
       d="m 370.04297,379.1582 c -10.84211,6.3e-4 -20.3219,7.29709 -23.12891,17.76953 C 316.71372,509.59982 286.51475,622.31187 256.32031,735 l 71.7793,-198.29883 34.84375,-83.71484 6.94336,-25.91602 0.15625,0.006 c 0.0332,-10e-4 0.0664,-0.003 0.0996,-0.004 l 6.94336,25.91406 34.84375,83.71484 L 483.70898,735 393.52148,398.41016 C 390.56777,387.38658 381.4554,379.15754 370.04297,379.1582 Z"
       transform="scale(0.26458333)" />
    <path
       id="path46"
       style="fill:#000000;stroke:none;stroke-width:2.64583px;stroke-linecap:butt;stroke-linejoin:miter;stroke-opacity:1"
       d="M 51.366367,147.93928 97.895833,194.46875 144.4253,147.93928 H 125.71841 L 97.895833,175.76189 70.073256,147.93928 Z" />
    <text
       xml:space="preserve"
       style="font-style:normal;font-weight:normal;font-size:35.2778px;line-height:1.25;font-family:sans-serif;fill:#000000;fill-opacity:1;stroke:none;stroke-width:2.64583"
       x="83.444122"
       y="165.85141"
       id="text3027"><tspan
         id="tspan3025"
         style="font-style:normal;font-variant:normal;font-weight:bold;font-stretch:normal;font-size:35.2778px;font-family:Montserrat;-inkscape-font-specification:'Montserrat Bold';stroke-width:2.64583"
         x="83.444122"
         y="165.85141">G</tspan></text>
  </g>
</svg>
